<svg xmlns="http://www.w3.org/2000/svg" x="0px" y="0px" viewBox="6.131600379943848 6.141700744628906 35.73679733276367 35.71659851074219" enable-background="new 0 0 48 48">
<g>
	
		<rect x="9.0314" y="14.6055" fill="#FFFFFFFF" stroke="#052A50FF" stroke-width="1.5" stroke-linecap="round" stroke-linejoin="round" stroke-miterlimit="10" width="26.1574" height="22.5277"/>
	<path fill="none" stroke="#052A50FF" stroke-width="1.5" stroke-linecap="round" stroke-linejoin="round" stroke-miterlimit="10" d="   M26.6806,37.0655v-9.3167c0-1.552-1.2581-2.8101-2.8101-2.8101h-3.5207c-1.552,0-2.8101,1.2581-2.8101,2.8101v9.3167"/>
</g>
<g>
	
		<path fill="#FFFFFFFF" stroke="#052A50FF" stroke-width="1.5" stroke-linecap="round" stroke-linejoin="round" stroke-miterlimit="10" d="   M36.0979,12.987v2.586c0,2.5738-2.0814,4.6776-4.6552,4.6776c-2.5737,0-4.6774-2.1038-4.6774-4.6776   c0,2.5738-2.0814,4.6776-4.6552,4.6776c-2.5737,0-4.6328-2.0814-4.655-4.6552c0,2.5738-2.1038,4.6776-4.6776,4.6776   s-4.6552-2.1038-4.6552-4.6776V12.987c0-2.0814,1.7009-3.7823,3.7823-3.7823h20.4109C34.397,9.2047,36.0979,10.9057,36.0979,12.987   z"/>
	
		<path fill="#FFFFFFFF" stroke="#052A50FF" stroke-width="1.5" stroke-linecap="round" stroke-linejoin="round" stroke-miterlimit="10" d="   M35.5697,41.1083H8.6505c-0.977,0-1.7689-0.792-1.7689-1.769v-0.4373c0-0.977,0.792-1.769,1.7689-1.769h26.9192   c0.977,0,1.769,0.792,1.769,1.769v0.4373C37.3387,40.3163,36.5467,41.1083,35.5697,41.1083z"/>
</g>
<g>
	<g>
	</g>
	
		<path fill="#FFFFFFFF" stroke="#052A50FF" stroke-width="1.5" stroke-linecap="round" stroke-linejoin="round" stroke-miterlimit="10" d="   M37.5161,21.9256H26.7003c-1.9895,0-3.6023-1.6128-3.6023-3.6023V10.494c0-1.9895,1.6128-3.6023,3.6023-3.6023h10.8158   c1.9895,0,3.6023,1.6128,3.6023,3.6023v7.8293C41.1184,20.3128,39.5056,21.9256,37.5161,21.9256z"/>
</g>
<g>
	<g>
		<path fill="none" stroke="#052A50FF" stroke-width="1.5" stroke-linecap="round" stroke-linejoin="round" stroke-miterlimit="10" d="    M32.9836,16.2621h-3.3679c-0.3513,0-0.6683-0.2105-0.8047-0.5343l-0.948-2.2515c-0.2423-0.5755,0.1803-1.2119,0.8047-1.2119h5.264    c0.6244,0,1.047,0.6364,0.8047,1.2119l-0.948,2.2515C33.652,16.0516,33.3349,16.2621,32.9836,16.2621z"/>
		
			<circle fill="none" stroke="#052A50FF" stroke-width="1.5" stroke-linecap="round" stroke-linejoin="round" stroke-miterlimit="10" cx="29.722" cy="18.8245" r="0.1436"/>
		
			<circle fill="none" stroke="#052A50FF" stroke-width="1.5" stroke-linecap="round" stroke-linejoin="round" stroke-miterlimit="10" cx="33.0755" cy="18.8245" r="0.1436"/>
		<path fill="none" stroke="#052A50FF" stroke-width="1.5" stroke-linecap="round" stroke-linejoin="round" stroke-miterlimit="10" d="    M34.7363,13.4763l0.6247-1.4742c0.2234-0.5271,0.7403-0.8695,1.3128-0.8695h0.4154"/>
	</g>
</g>
</svg>