<svg xmlns="http://www.w3.org/2000/svg" x="0px" y="0px" viewBox="6.120000305175781 6.157999935150146 35.757001037597654 35.684002990722654" enable-background="new 0 0 48 48">
<g>
	
		<path fill="#FFFFFFFF" stroke="#052A50FF" stroke-width="1.62" stroke-linecap="round" stroke-linejoin="round" stroke-miterlimit="10" d="   M26.239,6.968h-4.479c-8.19,0-14.83,6.639-14.83,14.83v16.817c0,1.335,1.082,2.416,2.416,2.416h29.305   c1.335,0,2.416-1.082,2.416-2.416V21.798C41.069,13.608,34.43,6.968,26.239,6.968z"/>
	<path fill="none" stroke="#052A50FF" stroke-width="1.62" stroke-linecap="round" stroke-linejoin="round" stroke-miterlimit="10" d="   M13.567,41.032h20.865c1.029,0,1.864-0.834,1.864-1.864V21.673c0-1.029-0.834-1.864-1.864-1.864H13.567   c-1.029,0-1.864,0.834-1.864,1.864v17.495C11.704,40.197,12.538,41.032,13.567,41.032z"/>
</g>
<g>
	<path fill="none" stroke="#052A50FF" stroke-width="1.62" stroke-linecap="round" stroke-linejoin="round" stroke-miterlimit="10" d="   M15.609,41.032h-2.14c-0.975,0-1.765-0.79-1.765-1.765v-2.14c0-0.975,0.79-1.765,1.765-1.765h2.14c0.975,0,1.765,0.79,1.765,1.765   v2.14C17.375,40.241,16.585,41.032,15.609,41.032z"/>
	<path fill="none" stroke="#052A50FF" stroke-width="1.62" stroke-linecap="round" stroke-linejoin="round" stroke-miterlimit="10" d="   M34.531,41.032h-2.14c-0.975,0-1.765-0.79-1.765-1.765v-2.14c0-0.975,0.79-1.765,1.765-1.765h2.14c0.975,0,1.765,0.79,1.765,1.765   v2.14C36.296,40.241,35.506,41.032,34.531,41.032z"/>
	<path fill="none" stroke="#052A50FF" stroke-width="1.62" stroke-linecap="round" stroke-linejoin="round" stroke-miterlimit="10" d="   M28.815,41.032h-2.14c-0.975,0-1.765-0.79-1.765-1.765v-2.14c0-0.975,0.79-1.765,1.765-1.765h2.14c0.975,0,1.765,0.79,1.765,1.765   v2.14C30.58,40.241,29.79,41.032,28.815,41.032z"/>
	<path fill="none" stroke="#052A50FF" stroke-width="1.62" stroke-linecap="round" stroke-linejoin="round" stroke-miterlimit="10" d="   M15.609,35.316h-2.14c-0.975,0-1.765-0.79-1.765-1.765v-2.14c0-0.975,0.79-1.765,1.765-1.765h2.14c0.975,0,1.765,0.79,1.765,1.765   v2.14C17.375,34.525,16.585,35.316,15.609,35.316z"/>
	<path fill="none" stroke="#052A50FF" stroke-width="1.62" stroke-linecap="round" stroke-linejoin="round" stroke-miterlimit="10" d="   M34.531,35.316h-2.14c-0.975,0-1.765-0.79-1.765-1.765v-2.14c0-0.975,0.79-1.765,1.765-1.765h2.14c0.975,0,1.765,0.79,1.765,1.765   v2.14C36.296,34.525,35.506,35.316,34.531,35.316z"/>
</g>
<g>
	
		<line fill="none" stroke="#052A50FF" stroke-width="1.62" stroke-linecap="round" stroke-linejoin="round" stroke-miterlimit="10" x1="21.273" y1="15.627" x2="26.727" y2="15.627"/>
	
		<line fill="none" stroke="#052A50FF" stroke-width="1.62" stroke-linecap="round" stroke-linejoin="round" stroke-miterlimit="10" x1="21.273" y1="12.182" x2="26.727" y2="12.182"/>
</g>
</svg>