<svg xmlns="http://www.w3.org/2000/svg" x="0px" y="0px" viewBox="6.2503862380981445 6.2870001792907715 35.662113189697266 35.45561981201172" enable-background="new 0 0 48 48">
<g>
	
		<path fill="#031663FF" stroke="#FFFFFFFF" stroke-width="1.5" stroke-linecap="round" stroke-linejoin="round" stroke-miterlimit="10" d="   M17.7898,19.7968c-1.2691,1.1036-1.5721,2.9371-0.7508,4.4048c0.5711,1.0207,1.3881,2.2194,2.5297,3.3988   c1.5055,1.5552,3.2541,2.7198,4.6081,3.4883c1.2873,0.7307,2.8968,0.5481,4.0146-0.4221l0.597-0.5182   c1.2124-1.0522,3.0128-1.0571,4.2307-0.0113l3.8523,3.3076c1.4778,1.2688,1.5478,3.5899,0.0662,4.8543   c-1.6364,1.3966-4.2156,2.7746-7.9819,2.6899C21.4371,40.82,9.1028,28.9081,7.2442,19.9531   c-1.1238-5.4146,1.8603-8.3275,4.3955-9.7844c1.5935-0.9157,3.6212-0.363,4.4961,1.2534l2.3767,4.3909   C19.2342,17.1463,18.9339,18.8019,17.7898,19.7968L17.7898,19.7968z"/>
</g>
<g>
	
		<line fill="none" stroke="#031663FF" stroke-width="1.5" stroke-linecap="round" stroke-linejoin="round" stroke-miterlimit="10" x1="30.895" y1="17.105" x2="36.077" y2="11.923"/>
	
		<line fill="none" stroke="#031663FF" stroke-width="1.5" stroke-linecap="round" stroke-linejoin="round" stroke-miterlimit="10" x1="24.0069" y1="14.362" x2="24.0069" y2="7.037"/>
	
		<line fill="none" stroke="#031663FF" stroke-width="1.5" stroke-linecap="round" stroke-linejoin="round" stroke-miterlimit="10" x1="33.8375" y1="24" x2="41.1625" y2="24"/>
</g>
</svg>