<svg xmlns="http://www.w3.org/2000/svg" x="0px" y="0px" viewBox="16.393500747680665 13.019799652099609 31.213027114868165 37.96030151367187" enable-background="new 0 0 64 64">
<g>
	
		<path fill="#FFFFFFFF" stroke="#052A50FF" stroke-width="1.62" stroke-linecap="round" stroke-linejoin="round" stroke-miterlimit="10" d="   M45.6705,21.3728c0.7265,0.8445,1.126,1.9216,1.126,3.0356v20.6423c0,2.8274-2.2398,5.1194-5.0026,5.1194H22.2061   c-2.7629,0-5.0026-2.292-5.0026-5.1194V18.9492c0-2.8274,2.2398-5.1194,5.0026-5.1194H37.603c1.0023,0,1.9548,0.4371,2.6084,1.1969   L45.6705,21.3728z"/>
	
		<path fill="#FFFFFFFF" stroke="#052A50FF" stroke-width="1.62" stroke-linecap="round" stroke-linejoin="round" stroke-miterlimit="10" d="   M46.1451,22.2388l-6.5032-7.566c-1.4994-1.7445-4.205-0.6005-4.205,1.778v7.566c0,1.4446,1.0861,2.6156,2.4258,2.6156h6.5032   C46.4829,26.6324,47.5842,23.913,46.1451,22.2388z"/>
</g>
<g>
	<path fill="none" stroke="#052A50FF" stroke-width="1.62" stroke-linecap="round" stroke-linejoin="round" stroke-miterlimit="10" d="   M32.2604,34.0773h9.1799 M32.2604,41.3191h9.1799"/>
	<path fill="none" stroke="#052A50FF" stroke-width="1.62" stroke-linecap="round" stroke-linejoin="round" stroke-miterlimit="10" d="   M22.348,33.0732l1.7193,1.8981l2.8653-2.9547 M22.348,40.5722l1.7193,1.8981l2.8653-2.9547"/>
</g>
</svg>