<svg xmlns="http://www.w3.org/2000/svg" x="0px" y="0px" viewBox="7.274858474731445 6.374996185302734 33.450294494628906 35.250003814697266" enable-background="new 0 0 48 48">
<g>
	<g>
		
			<path fill="#FFFFFF" stroke="#2B099AFF" stroke-width="1" stroke-linecap="round" stroke-linejoin="round" stroke-miterlimit="10" d="    M24.83268,41.125H14.61493c-1.34966,0-2.44377-1.09411-2.44377-2.44377v-12.78c0-0.66091,0.53578-1.19669,1.19669-1.19669    h11.46483V41.125z"/>
		
			<path fill="#FFFFFF" stroke="#2B099AFF" stroke-width="1" stroke-linecap="round" stroke-linejoin="round" stroke-miterlimit="10" d="    M24.83268,41.125h10.21775c1.34966,0,2.44377-1.09411,2.44377-2.44377v-12.78c0-0.66091-0.53578-1.19669-1.19669-1.19669H24.83268    V41.125z"/>
	</g>
</g>
<g>
	
		<path fill="#FFFFFF" stroke="#2B099AFF" stroke-width="1" stroke-linecap="round" stroke-linejoin="round" stroke-miterlimit="10" d="   M20.44478,30.58061h-9.86089c-0.92719,0-1.46768-1.15017-0.93077-1.98074l2.17672-3.36731   c0.21412-0.33124,0.561-0.52802,0.93077-0.52802h12.07207l-3.45713,5.34805C21.16143,30.38384,20.81455,30.58061,20.44478,30.58061   z"/>
	
		<path fill="#FFFFFF" stroke="#2B099AFF" stroke-width="1" stroke-linecap="round" stroke-linejoin="round" stroke-miterlimit="10" d="   M29.22059,30.58061h9.8609c0.9272,0,1.46767-1.15017,0.93077-1.98074l-2.17673-3.36731   c-0.21412-0.33124-0.561-0.52802-0.93077-0.52802H24.83268l3.45713,5.34805C28.50394,30.38384,28.85081,30.58061,29.22059,30.58061   z"/>
</g>
<g>
	
		<path fill="#FFFFFF" stroke="#2B099AFF" stroke-width="1" stroke-linecap="round" stroke-linejoin="round" stroke-miterlimit="10" d="   M28.6106,15.491l-0.21592-2.05122l1.56459-1.7481c0.4723-0.52769,0.18769-1.36889-0.508-1.5014L27.2708,9.77496L25.57339,7.2741   c-0.35917-0.52917-1.13768-0.53277-1.50172-0.00693l-1.73616,2.50779l-2.18048,0.41533   c-0.69568,0.13251-0.9803,0.9737-0.50799,1.5014l1.56459,1.7481l-0.21694,2.06092c-0.07528,0.71513,0.6693,1.23113,1.31247,0.90954   l2.52043-1.26021l2.46654,1.24849C27.9375,16.72419,28.68609,16.20814,28.6106,15.491z"/>
	
		<path fill="#FFFFFF" stroke="#2B099AFF" stroke-width="1" stroke-linecap="round" stroke-linejoin="round" stroke-miterlimit="10" d="   M36.0198,18.16704c-0.80283,0.28653-1.4397,0.92266-1.72636,1.72262c-0.0577,0.161-0.27238,0.16098-0.33004-0.00004   c-0.28648-0.8-0.92263-1.43616-1.72264-1.72265c-0.16101-0.05766-0.16104-0.27234-0.00004-0.33004   c0.79996-0.28666,1.43609-0.92353,1.72261-1.72636c0.05756-0.16127,0.27259-0.1613,0.33018-0.00004   c0.28671,0.80278,0.92355,1.43962,1.72633,1.72633C36.18109,17.89445,36.18107,18.10948,36.0198,18.16704z"/>
	
		<path fill="#FFFFFF" stroke="#2B099AFF" stroke-width="1" stroke-linecap="round" stroke-linejoin="round" stroke-miterlimit="10" d="   M12.39265,12.93556c-0.95064,0.33928-1.70475,1.09253-2.0442,2.03976c-0.06832,0.19064-0.32253,0.19061-0.3908-0.00005   c-0.33923-0.94728-1.09249-1.70056-2.03978-2.03979c-0.19066-0.06828-0.19069-0.32248-0.00004-0.3908   c0.94724-0.33944,1.70048-1.09355,2.03975-2.04419c0.06815-0.19096,0.32277-0.19099,0.39097-0.00005   c0.33949,0.95058,1.09358,1.70467,2.04416,2.04415C12.58364,12.61279,12.58361,12.86741,12.39265,12.93556z"/>
</g>
<g>
	<g>
		
			<line fill="none" stroke="#2B099AFF" stroke-width="1" stroke-linecap="round" stroke-linejoin="round" stroke-miterlimit="10" x1="21.28944" y1="21.42533" x2="21.28944" y2="20.36236"/>
		
			<line fill="none" stroke="#2B099AFF" stroke-width="1" stroke-linecap="round" stroke-linejoin="round" stroke-miterlimit="10" x1="28.55309" y1="21.42533" x2="28.55309" y2="20.36236"/>
		
			<line fill="none" stroke="#2B099AFF" stroke-width="1" stroke-linecap="round" stroke-linejoin="round" stroke-miterlimit="10" x1="24.83268" y1="21.42533" x2="24.83268" y2="18.53168"/>
		<g>
			<path fill="none" stroke="#2B099AFF" stroke-width="1" stroke-linecap="round" stroke-linejoin="round" stroke-miterlimit="10" d="     M32.98214,12.73777v-0.9416c0-2.71788,2.20328-4.92116,4.92116-4.92116h0"/>
			<path fill="none" stroke="#2B099AFF" stroke-width="1" stroke-linecap="round" stroke-linejoin="round" stroke-miterlimit="10" d="     M38.67196,21.28418V20.987c0-0.8578,0.69538-1.55318,1.55318-1.55318h0"/>
		</g>
		<g>
			<path fill="none" stroke="#2B099AFF" stroke-width="1" stroke-linecap="round" stroke-linejoin="round" stroke-miterlimit="10" d="     M16.17951,11.72675l-0.18796-0.92265c-0.24102-1.18315-0.88787-2.17997-1.76591-2.87493"/>
			<path fill="none" stroke="#2B099AFF" stroke-width="1" stroke-linecap="round" stroke-linejoin="round" stroke-miterlimit="10" d="     M14.08907,20.90368V20.6065c0-0.8578-0.69538-1.55318-1.55318-1.55318h0"/>
		</g>
	</g>
</g>
</svg>